<svg id="white_3_Image" data-name="white 3 Image" xmlns="http://www.w3.org/2000/svg" viewBox="0 0 512.15 200.33" fill="#cfd2da" height="12px"><path d="M502.81,87.86c2.7,2.67,4.91,5.51,4.91,6.3a14,14,0,0,1-3.08,6l-3.29-1.13c-17.07-5.88-34.13-11.79-51.25-17.54-1.53-.51-3.45,0-5.17.17-8.17.93-16.35,1.91-24.52,2.89a3.54,3.54,0,0,0-3.11,4.8c2.64,8.07,5.64,15.87,11.14,22.64,5.18,6.37,9.74,13.25,14.35,20.05,3.88,5.73,8,11.41,11,17.57a71.27,71.27,0,0,1,7.73,26.5c0.89,12.2-4.91,20.56-17.63,23.09-8.1,1.61-16.31,1.81-24.56,1.75-22.62-.19-45.24-0.22-67.86-0.25q-54.72-.06-109.43,0a103.64,103.64,0,0,1-26.24-3.29c-8.56-2.2-17.27-3.8-25.88-5.81-10.1-2.35-20.52-4.91-20.52-4.91-5.34-1.31-9.9-2.46-10.14-2.55s0.3-1.34,2.13-2.37,6.69-4.09,7-4.46,0.76-1.52.26-1.75-4.42-.24-7.62-0.07-12,.53-12.5.46-1.71-1.62-2.39-2.84-1.07-5.26.75-6,6.52-2.73,6.52-2.84a5.48,5.48,0,0,0-2-1.27l-1-.38c-2.61-1-5.16-2.33-7.86-2.91l-5-1.06c-2.07-4.29-3.42-8-3-8.28a5.39,5.39,0,0,0,1.44-1.23c0-.15-2.62-1.7-5.65-3.46L129,142.65l-0.9-1.86a6.54,6.54,0,0,1,1.08-7.27c1.81-1.94,6.45-7.43,6.06-7.61s-5.62-1.92-10.85-3.63c0,0-1.57-.51-7.18-2a38.16,38.16,0,0,1-12.69-6.33A241.41,241.41,0,0,0,76.63,96.18C61.79,88.2,47.37,79.45,32.78,71c-7-4-14-8-20.8-12.3L9.27,57c-2.57-2.54-1.24-2.85,3-.68l3.82,2,1.87,1c2.11,0.95,1-.22-2.54-2.58S4.19,46.17,4.26,46a6.34,6.34,0,0,1,3,.76l1.24,0.77c6.1,3.8,11.93,8.12,18.3,11.39,16.11,8.27,32.39,16.19,48.72,24,10,4.8,20.13,9.4,30.38,13.64a93.33,93.33,0,0,0,24.95,6.26l1.42,0.16c1.57,0.17-.68-0.78-5-2.1s-16.05-3.92-16-4.14,2.48-1.25,5.51-1.82h2.75c11.72,0,23.24,1.92,34.76,3.78l2,0.32c2.3-.54-0.22-1.88-5.61-3l-29.46-5.23c-5.49-.33-10-0.75-10-0.93a14.44,14.44,0,0,1,4.94-1.34l2.47-.15c13.26-.78,26.31,1.06,39.35,3.11,6,0.94,8,1.39,14,.77a29.08,29.08,0,0,0,5.67-1.08c8.44-3.06,12.08-1.11,19.48-2.42,1-.18,13-0.19,14-0.19,10.48,0.08,17-.38,27.5-0.44,10-.07,18,0.08,28,0.25a203.07,203.07,0,0,1,21.6,1.5c11,1.54,12.84,1.09,24.65,3a122.24,122.24,0,0,1,14.94,4.75c7.59,3.74,12.71,8.85,20.35,12.49a117.1,117.1,0,0,1,15.59,9.06c4.49,3.18,8.51,6,8.93,6.37a12,12,0,0,0,2.43,1.14c0.43,0.1,1.7-.06,1.85-0.56s-0.64-4.36-1.51-7.58l-0.87-2.9c-3.95-13.23-8.31-26.36-11.78-39.71-2.89-11.17-4.4-22.67-1.39-34.13,2-7.54,4.91-14.86,10.84-20.23,9.66-8.76,20.23-16.07,33.55-18.2l2.8-.45a70.3,70.3,0,0,1,7.18-1,35.72,35.72,0,0,1,3.78.19c0.32,0.1,5.65,1,11.09,1.77,0,0,4.56.68,10.32,5.7,5.5,4.81,10.43,10.23,13.72,16.76a89.11,89.11,0,0,1,9.11,29.34c0.18,1.55.38,3.41,1.3,4.51,3.53,4.21,6.81,9,11.2,12,7.42,5.21,15.59,9.34,23.49,13.82Zm-11.93,3.06c5.36,1.25,11.08,1.83,12.72,1.28l-0.95-1.39A6.87,6.87,0,0,0,500,88.9c-10.64-5.32-22.43-8.61-31-17.53-0.83-.86-1.89-1.49-2.73-2.33-1.85-1.88-3.16-1.77-4.07,1l-0.9,2.69c-2.12,2.3-4.12,4.44-4.45,4.76s-0.89,1.43-.51,1.78a110.61,110.61,0,0,0,11,4.17s8.2,2.81,17.11,5.57C489.89,90.69,490.88,90.92,490.88,90.92ZM442.69,78.77a18.06,18.06,0,0,0,15.37-19.64c-0.59-5.54,1.33-10.33.57-15.85a37.55,37.55,0,0,0-7.37-16.35c-4.08-4.88-9.78-8.34-15.15-11.77-8.66-5.52-18.68-6.69-28.81-6.31-4.62.17-9.21,0.65-13.44,3a110.1,110.1,0,0,0-15,10.13c-6.51,5.06-10,11.65-12.65,19.21-3.37,9.69-3,19.4-.6,29,2.32,9.35,5.44,18.5,8.46,27.66a168.6,168.6,0,0,0,12,28.41,5.11,5.11,0,0,1-2.89,7.27,25.57,25.57,0,0,1-11,1.12c-6.56-.49-12.65-1.73-18.18-5.69a133.93,133.93,0,0,0-15.13-9.22c-6.82-3.63-13.74-7.13-20.85-10.16-12.34-5.26-25.49-8-38.57-10.5a242.8,242.8,0,0,0-31.65-3.56c-11.88-.71-29.24-2.46-43.49-2a95.84,95.84,0,0,0-16.92.67c-10.09,1.51-13.11,2.65-13.11,2.65-5.14,2-6.58,3.27-3.21,2.91s8.82-.66,12.09-0.92,5.84,1,.47,2.22l-41,12.21c-5.24,1.67-5.08,3.69.36,4.5,0,0,3.91.58,10.64,1.31s10.48,1,10.48,1c5.49,0.38,6,2.73,1.05,5.21l-19.45,9.83c-4.91,2.48-6.7,7.41-4,11l2.66,2.8c3,3.13,6.24,6,9.48,8.83a7.49,7.49,0,0,0,3.27,1.74c11.76,2.34,23.54,4.56,35.32,6.82l2.11,0.41c2.68,0.54,4.4,1.21,3.82,1.5s-3.17,1.51-4.88,2.3-6.42,3.23-6.7,3.51-0.7,1.24-.32,1.46a13,13,0,0,0,1.63.78l10.46,0.53,60,3,3.12,0.16c3.43,0.23,6.25.48,6.25,0.56s-4.35,1.33-9.71,2.58l-13.69,3.18c-5.36,1.25-9.71,2.49-9.67,2.76s3.43,1,7.43,1h3.63q54.12,0.12,108.23.27c2.71,0,5.41.35,8.11,0.62,10.17,1,20.32,2.51,30.51,3,11.81,0.61,23.66.34,35.5,0.54a55.86,55.86,0,0,0,19.09-2.79c4-1.38,7.45-3.63,8.57-8.21,1.55-6.3-.28-12-3.25-17.41-3.44-6.26-8.94-10.79-14.06-15.57-4.49-4.19-9.44-7.9-14-12-7.49-6.85-14.71-14-22.26-20.79-10.81-9.7-20.53-20.17-25.61-34.13a58.5,58.5,0,0,1-2.34-8c-1.68-8-.66-16,0.09-24.09a66.05,66.05,0,0,1,5.16-19.32L380,31c1.21-.24,2.13,0,2,0.43S380.9,37.57,379.84,43c0,0-.31,1.61-1.2,7.36-1.29,8.27.25,16.39,1.78,24.47s5.17,14.44,12,19.39C399,99,405.69,99.35,413,97c1.94-.62,2.7-1.77,2-3.82a37.9,37.9,0,0,1-1.5-5.3c-0.79-4.11.58-5.78,4.68-6.23C426.35,80.75,434.53,79.86,442.69,78.77Z" transform="translate(0.08 -1.79)"/><path class="cls-1" d="M437.69,40.41c0.68,1.38-1.52,2.92-3.21,2.87-1.87-.05-4.35-2.15-4.22-3.4l0.18-1.73a9.45,9.45,0,0,1,6.27.27Z" transform="translate(0.08 -1.79)"/><path d="M436.24,40.8c0.48,1.39-1,2.29-2.08,2.7l2.18-.6L436,43l0.72-.18A5,5,0,0,1,432.41,41c-0.92-1-.65-2-0.52-3.23,0,0.2-2.75.6-1.28,0.41a10,10,0,0,1,1.35-.06,9,9,0,0,1,3,.53c0.75,0.26,1,1.51,1.33,2.15,0.1,0.19,2.82-.93,2.9-0.78l-1-2c-0.28-.57-2.32-0.64-2.86-0.69A16.79,16.79,0,0,0,429,38.52l-0.05,0a4.41,4.41,0,0,0,.12,2.72A5.29,5.29,0,0,0,433,43.67a11.81,11.81,0,0,0,3.83-.88c1.19-.34,2.78-1.32,2.28-2.76C439.11,39.94,436.25,40.85,436.24,40.8Z" transform="translate(0.08 -1.79)"/><path d="M503.37,96.76c-0.47,1.82-1.85,3.25-3.08,4.61L509,99c-12.68-4.36-25.36-8.75-38-13.08-6.8-2.32-14.42-6.41-21.66-5.42-8.15,1.12-16.35,1.91-24.52,2.89A58.26,58.26,0,0,0,415.07,86c-5.55,1.71.71,12.58,2,15.61,2.88,6.6,7.37,11.88,11.62,17.6,4.76,6.43,9.14,13.15,13.63,19.78,8,11.88,14.15,25.16,14.92,39.68a22.2,22.2,0,0,1-3.46,13.39,18,18,0,0,1-4.75,4.63,21.34,21.34,0,0,1-3.13,1.74q-2.54,1,.47,0-1.87.32-3.75,0.56c-16,2.18-32.77.73-48.87,0.67q-24.93-.09-49.86-0.09c-33.13,0-66.27.21-99.4,0-15.76-.1-31.23-4.89-46.52-8.25-11-2.41-21.91-5.12-32.81-7.89-4.2-1.07,3.61-4.61,5.13-5.58s3.13-1.51,2.72-3.42c-0.15-.69-7.67-0.06-8.39,0-3.83.2-7.67,0.41-11.51,0.43-1.62,0-2.79-3.14-3.07-4.44-0.62-2.87.59-4.14,3-5.15a34.1,34.1,0,0,0,4.73-2.11c0.1-.06-6-2.9-6.1-2.93a46,46,0,0,0-8.49-2.42c-1.89-.4-1.76-1.41-2.61-3.33-0.55-1.24-2-3.79-1.59-5.21,0.56-1.8,2.46-.66-0.27-2.35-1.19-.73-3.51-1.44-4.13-2.71l-2.2-4.55c-2.51-5.19,3.07-9.37,6-13,1.42-1.8,1.47-1.8-.63-2.52q-4.53-1.55-9.09-3c-5.43-1.73-10.78-2.9-15.81-5.71-7.2-4-13.7-9.54-20.72-13.92-14.61-9.12-30.06-17-44.92-25.74-7.63-4.48-15.32-8.86-22.94-13.35C23.47,61.89,11,55,12.56,53.73L3.87,56.06c4,0.13,6.93,4.24,10.74,4.67,0.86,0.1,8.68-2.38,8.69-2.33-0.25-1.11-2.77-2.34-3.58-2.9A42,42,0,0,1,15,51.45c-2.09-2-4.82-4.13-6.36-6.57L-0.08,47.2c3.63-.07,7.47,3.62,10.25,5.45a162.74,162.74,0,0,0,15.71,9.24C37.4,67.77,49,73.46,60.65,79.09S84.14,90.35,96.11,95.5c10,4.29,21.2,8.54,32.23,8.7,0.88,0,8.67-1.92,8.69-2.33,0.13-2.37-19.2-4.94-21.51-6.25l0.29-.22q3.2-1.35-3.45.73h1.39c3.7,0,7.38.12,11.07,0.39,8.4,0.6,16.73,2,25,3.39,3,0.49,5.58-.58,8.55-1.39,0.86-.24,2.33-0.41,3-1.08s-6.2-2.46-6.45-2.52c-5.66-1.26-11.47-2-17.18-3.05-6.7-1.19-13.14-2.13-19.91-2.76-3.93-.37-0.46-0.34-6.1.63a46.22,46.22,0,0,1,6.25-.3A153,153,0,0,1,142.39,91c10.67,1.38,21.32,3.74,32,1.05l2.6-.68c-3,.81-0.65.33,0,0.24,2.15-.28,4.3-0.52,6.45-0.76,4-.44,8-0.65,12-0.88,22.39-1.3,44.71-.33,67.1.15,7.41,0.16,14.76,2,22.07,3,8.12,1.15,16.22,2.4,24.33,3.68,7.83,1.24,13.81,3.79,20.83,7.41,7.24,3.74,14.7,7.14,21.78,11.19,3.69,2.11,7.18,4.5,10.65,7,2.53,1.8,6.6,6.08,10,5.25,2.58-.62,7-0.92,9-2.69,1.27-1.11-3-12.5-3.46-14.09-8.13-26.88-23.76-61.3-4.46-87,5.21-6.94,13.84-12.55,21.41-16.55,6.79-3.58,11.64-3.49,19-1.38,6.7,1.94,13.46,3.27,20,5.69a7.92,7.92,0,0,1,1.71,1.49c3,2.59,6,5.1,8.83,7.89,5.65,5.64,8.89,15,11.71,22.27a60.81,60.81,0,0,1,3.42,13.6c0.64,4.62,3.64,7.47,6.58,11,6.41,7.59,16.1,12,24.65,16.76,5.3,2.92,11.27,5.49,12.75,12.14,0-.06,8.74-2.14,8.69-2.33-0.66-3-3.17-6.75-5.82-8.26-6.53-3.69-13.16-7.21-19.58-11.08a55.5,55.5,0,0,1-15.18-13.43c-2-2.44-3-4-3.4-7.08a61.94,61.94,0,0,0-2.84-12,121,121,0,0,0-8.54-18.65c-2.61-4.86-6.87-8.15-11-11.72-6-5.25-14-6.32-21.7-8.14-3.6-.85-8.09-2.78-11.77-2.19A128.46,128.46,0,0,0,398.67,5C386.75,8.27,377,14.58,367.84,22.78c-10.54,9.45-13.25,25.92-12.21,39.3,1.21,15.54,7.23,31,11.8,45.76,0.67,2.16,7,17.85,4.67,19.89l8.54-2.3c-3.42.82-8.71-4.6-11.13-6.32a127.59,127.59,0,0,0-12.17-7.61c-6.71-3.72-13.76-6.91-20.58-10.44a86.76,86.76,0,0,0-10.16-4.81c-3.95-1.43-8.55-1.64-12.68-2.29-15.29-2.41-30.92-5.75-46.39-6.2-14.59-.43-29.06-1-43.67-0.67-13.74.28-28.77-.45-42.14,3-10,2.57-23.25-.47-34.37-1.83-11.42-1.39-23-2.13-34.17.86-1.92.52-4.68,0.82-6.37,2a15.84,15.84,0,0,1,2.35.35c2.53,0.27,5.08.42,7.62,0.58,3.43,0.22,7,1.24,10.37,1.84l16,2.85,3.06,0.54c0.65,0.12,8.5,2,5.61,3l8.69-2.33c-14.72-2.35-30.89-6.52-45.6-2.58-2.36.63-4.73,1.25-7,2.07-2.61.93,1.81,1.36,2.74,1.59,1.83,0.45,17.79,3.55,17.69,5.22l8.69-2.33c-10.36-.16-21-4-30.43-7.94-12-5.05-23.77-10.67-35.51-16.33S47.84,66.29,36.3,60.44a164.81,164.81,0,0,1-15.94-9.13c-3.16-2.07-7.64-6.52-11.75-6.44-1.07,0-8.4,2.79-8.69,2.33,1.55,2.46,4.29,4.58,6.36,6.57,1.31,1.26,2.67,2.46,4.09,3.58,1,0.79,3.93,2,4.24,3.37L23.3,58.4c-2.31-.26-4.69-2.19-6.71-3.24-4-2.07-6.37-.87-10.58.28-3.32.91-2.13,2.06,0.3,3.59,6.74,4.23,13.62,8.22,20.51,12.2,14,8.09,27.86,16.46,42,24.26,6.52,3.58,13,7.21,19.21,11.25s12.13,9,18.84,12.45c4.09,2.08,8.69,2.88,13,4.24,2.66,0.83,5.3,1.74,8,2.62,1.67,0.56,3.56.4,2.32,2.18-2.59,3.72-6.91,6.55-7.16,11.36-0.14,2.7,2.29,6.86,4.51,8.15,0.64,0.37,4.54,2.16,3.93,2.92-1.29,1.62-1.41,1.2-.62,3.53,0.3,0.88,1.72,5.5,2.51,5.67,2.17,0.46,4.34.9,6.49,1.47a78,78,0,0,1,7.26,2.86c3.2,1.21,1.33,1.62-.6,2.46-1.75.76-4.09,1.17-5,3-1.26,2.42.58,5.3,2,7s8.46,0.27,10.47.18c2.51-.11,5-0.24,7.52-0.25,2.14,0,4.35.71,1.72,2.53-1.77,1.23-3.65,2.34-5.5,3.45-0.33.2-3.81,2.5-2.6,2.86,4.06,1.19,8.22,2.08,12.33,3.08,14,3.42,28.13,6.27,42.13,9.67,16,3.88,31.61,3.74,48,3.72q49.76-.05,99.52.05,24.95,0,49.9.18c13.48,0.09,26.52,0,39.62-3.47,8.15-2.18,15.29-5.3,18.28-13.86,3.82-10.95-1.42-24.83-6-34.72-5.69-12.31-14.59-23.85-22.63-34.7-3.9-5.27-7.7-10.09-10.49-16.08-1.75-3.76-7.08-12.67-2.18-15.55l-8.09,2.19c7.36-1.87,15.63-2,23.18-2.83,4.13-.48,6.75-0.49,10.72.85q6.42,2.16,12.82,4.35c12.69,4.33,25.36,8.73,38,13.08,1,0.36,8-1.51,8.69-2.33,1.23-1.36,2.61-2.79,3.08-4.61C511.72,95.8,503.75,95.28,503.37,96.76Z" transform="translate(0.08 -1.79)"/></svg>